<svg width="1024px" height="1024px" viewBox="0 0 48 48" xmlns="http://www.w3.org/2000/svg">
  <defs>
    <linearGradient x1="50%" y1="0%" x2="50%" y2="100%" id="bg">
      <stop stop-color="#44A49F" offset="10%"></stop>
      <stop stop-color="#008A81" offset="90%"></stop>
    </linearGradient>
  </defs>
  <rect fill="url(#bg)" x="0" y="0" width="48" height="48"></rect>
  <path fill="#FFFFFF" fill-rule="evenodd" d="M17,10 L31,10 C32.5,10 34,11.25 34,13 L34,35 C34,36.5 32.5,38 31,38 L17,38 C15.25,38 14,36.5 14,35 L14,13 C14,11.25 15.25,10 17,10 Z M28,14 L30,14 L30,16 L28,16 L28,14 Z M17,12 L31,12 C31.5522847,12 32,12.4477153 32,13 L32,18 L32,18 L16,18 L16,13 C16,12.4477153 16.4477153,12 17,12 Z M30,36 C31,36 32,35 32,34 C32,32.75 31,32 30,32 C28.75,32 28,32.75 28,34 C28,35 28.75,36 30,36 Z M18,32 L24,32 C25,32 26,32.75 26,34 C26,35 25,36 24,36 L18,36 C16.75,36 16,35 16,34 C16,32.75 16.75,32 18,32 Z M30,30 C31,30 32,29 32,28 C32,26.75 31,26 30,26 C28.75,26 28,26.75 28,28 C28,29 28.75,30 30,30 Z M24,30 C25,30 26,29 26,28 C26,26.75 25,26 24,26 C22.75,26 22,26.75 22,28 C22,29 22.75,30 24,30 Z M18,30 C19,30 20,29 20,28 C20,26.75 19,26 18,26 C16.75,26 16,26.75 16,28 C16,29 16.75,30 18,30 Z M30,24 C31,24 32,23 32,22 C32,20.75 31,20 30,20 C28.75,20 28,20.75 28,22 C28,23 28.75,24 30,24 Z M24,24 C25,24 26,23 26,22 C26,20.75 25,20 24,20 C22.75,20 22,20.75 22,22 C22,23 22.75,24 24,24 Z M18,24 C19,24 20,23 20,22 C20,20.75 19,20 18,20 C16.75,20 16,20.75 16,22 C16,23 16.75,24 18,24 Z"></path>
</svg>
