<svg width="144px" height="144px" viewBox="0 0 38 38" xmlns="http://www.w3.org/2000/svg">
  <defs>
    <linearGradient x1="50%" y1="0%" x2="50%" y2="100%" id="bg">
      <stop stop-color="#44A49F" offset="0%"></stop>
      <stop stop-color="#008A81" offset="100%"></stop>
    </linearGradient>
  </defs>
  <rect fill="url(#bg)" x="0" y="0" width="38" height="38"></rect>
  <path fill="#FFFFFF" fill-rule="evenodd" d="M12,5 L26,5 C27.5,5 29,6.25 29,8 L29,30 C29,31.5 27.5,33 26,33 L12,33 C10.25,33 9,31.5 9,30 L9,8 C9,6.25 10.25,5 12,5 Z M25,31 C26,31 27,30 27,29 C27,27.75 26,27 25,27 C23.75,27 23,27.75 23,29 C23,30 23.75,31 25,31 Z M13,27 L19,27 C20,27 21,27.75 21,29 C21,30 20,31 19,31 L13,31 C11.75,31 11,30 11,29 C11,27.75 11.75,27 13,27 Z M25,25 C26,25 27,24 27,23 C27,21.75 26,21 25,21 C23.75,21 23,21.75 23,23 C23,24 23.75,25 25,25 Z M19,25 C20,25 21,24 21,23 C21,21.75 20,21 19,21 C17.75,21 17,21.75 17,23 C17,24 17.75,25 19,25 Z M13,25 C14,25 15,24 15,23 C15,21.75 14,21 13,21 C11.75,21 11,21.75 11,23 C11,24 11.75,25 13,25 Z M25,19 C26,19 27,18 27,17 C27,15.75 26,15 25,15 C23.75,15 23,15.75 23,17 C23,18 23.75,19 25,19 Z M19,19 C20,19 21,18 21,17 C21,15.75 20,15 19,15 C17.75,15 17,15.75 17,17 C17,18 17.75,19 19,19 Z M13,19 C14,19 15,18 15,17 C15,15.75 14,15 13,15 C11.75,15 11,15.75 11,17 C11,18 11.75,19 13,19 Z M12,7 L26,7 C26.5,7 27,7.5 27,8 L27,13 L27,13 L11,13 L11,8 C11,7.5 11.5,7 12,7 Z M23,9 L25,9 L25,11 L23,11 L23,9 Z"></path>
</svg>
